<svg width="28" height="28" viewBox="0 0 28 28" fill="none" xmlns="http://www.w3.org/2000/svg">
<path d="M17.8258 13.575L14.0008 17.825L10.1758 13.575H12.7258L12.7258 8.47501H15.2758L15.2758 13.575H17.8258Z" stroke="#9095A0" stroke-width="0.85" stroke-linecap="round" stroke-linejoin="round"/>
<path d="M17.825 11.875L19.1 11.875C19.4382 11.875 19.7625 12.0093 20.0016 12.2484C20.2407 12.4875 20.375 12.8118 20.375 13.15L20.375 18.25C20.375 18.5882 20.2407 18.9125 20.0016 19.1516C19.7625 19.3907 19.4382 19.525 19.1 19.525L8.9 19.525C8.56185 19.525 8.23755 19.3907 7.99844 19.1516C7.75933 18.9125 7.625 18.5882 7.625 18.25L7.625 13.15C7.625 12.8118 7.75933 12.4875 7.99844 12.2484C8.23755 12.0093 8.56185 11.875 8.9 11.875H10.175" stroke="#9095A0" stroke-width="0.85" stroke-linecap="round" stroke-linejoin="round"/>
</svg>
