<svg width="36" height="36" viewBox="0 0 36 36" fill="none" xmlns="http://www.w3.org/2000/svg">
<path d="M26.5345 13.3052L22.6948 9.4647C22.5671 9.33698 22.4155 9.23567 22.2487 9.16655C22.0818 9.09743 21.903 9.06186 21.7224 9.06186C21.5418 9.06186 21.363 9.09743 21.1961 9.16655C21.0293 9.23567 20.8777 9.33698 20.75 9.4647L10.1531 20.0625C10.0248 20.1897 9.92315 20.3412 9.85396 20.508C9.78476 20.6749 9.74943 20.8538 9.75001 21.0345L9.75001 24.875C9.75001 25.2397 9.89487 25.5894 10.1527 25.8473C10.4106 26.1051 10.7603 26.25 11.125 26.25L14.9656 26.25C15.1462 26.2506 15.3251 26.2153 15.492 26.1461C15.6588 26.0769 15.8103 25.9752 15.9375 25.847L26.5345 15.25C26.6622 15.1223 26.7635 14.9707 26.8326 14.8039C26.9017 14.637 26.9373 14.4582 26.9373 14.2776C26.9373 14.097 26.9017 13.9182 26.8326 13.7514C26.7635 13.5845 26.6622 13.4329 26.5345 13.3052ZM14.9656 24.875H11.125L11.125 21.0345L18.6875 13.472L22.5281 17.3125L14.9656 24.875ZM23.5 16.3397L19.6595 12.5L21.722 10.4375L25.5625 14.2772L23.5 16.3397Z" fill="#9095A0"/>
</svg>
