<svg width="88" height="60" viewBox="0 0 88 60" fill="none" xmlns="http://www.w3.org/2000/svg">
<rect width="88" height="60" rx="9" fill="#F6FCE8"/>
<path d="M43.9996 42.6C44.4967 42.6 44.8996 42.1971 44.8996 41.7C44.8996 41.2029 44.4967 40.8 43.9996 40.8C43.5026 40.8 43.0996 41.2029 43.0996 41.7C43.0996 42.1971 43.5026 42.6 43.9996 42.6Z" fill="#9BD61D"/>
<path d="M43.9996 42.6C44.4967 42.6 44.8996 42.1971 44.8996 41.7C44.8996 41.2029 44.4967 40.8 43.9996 40.8C43.5026 40.8 43.0996 41.2029 43.0996 41.7C43.0996 42.1971 43.5026 42.6 43.9996 42.6Z" stroke="#9BD61D" stroke-width="2.16" stroke-miterlimit="10" stroke-linecap="square"/>
<path d="M37.4004 18.48C39.7126 17.2466 42.2804 16.5687 44.9001 16.5C49.8501 16.5 52.1001 19.2 52.1001 23.0997C52.1001 29.1 44.0001 30 44.0001 36.3" stroke="#9BD61D" stroke-width="2.16" stroke-miterlimit="10" stroke-linecap="square"/>
</svg>
