<svg width="50" height="50" viewBox="0 0 50 50" fill="none" xmlns="http://www.w3.org/2000/svg">
<rect width="50" height="50" rx="12" fill="#F2F0FF"/>
<path d="M18.571 36.7857H13.2139L13.2139 25L18.571 25" stroke="#8775FD" stroke-width="2.57143" stroke-miterlimit="10"/>
<path d="M18.5713 25L21.7856 13.2143C22.6381 13.2143 23.4556 13.5529 24.0584 14.1557C24.6612 14.7585 24.9999 15.5761 24.9999 16.4286L24.9999 22.8571L33.0356 22.8571C33.499 22.8572 33.9569 22.9574 34.3779 23.1509C34.799 23.3445 35.1732 23.6268 35.4749 23.9785C35.7767 24.3302 35.9988 24.743 36.1261 25.1886C36.2534 25.6341 36.2828 26.102 36.2124 26.56L35.0584 34.06C34.9418 34.8183 34.5578 35.5099 33.9758 36.0098C33.3937 36.5097 32.6521 36.7849 31.8849 36.7857L18.5713 36.7857L18.5713 25Z" stroke="#8775FD" stroke-width="2.57143" stroke-miterlimit="10" stroke-linecap="square"/>
</svg>
