<svg width="37" height="32" viewBox="0 0 37 32" fill="none" xmlns="http://www.w3.org/2000/svg">
<path d="M17.2161 27.7815H16.3584C16.106 27.7815 15.8656 27.8904 15.6996 28.0806L12.6164 31.6238C12.0873 32.2325 11.0861 31.8572 11.0861 31.0514V28.4939C11.0861 28.0599 10.7662 27.6985 10.3373 27.631C4.47875 26.7094 0.000100886 21.6376 0.000100886 15.5214V12.2653C0.000100886 5.49024 5.49034 0 12.2602 0H24.7399C31.5098 0 37 5.49024 37 12.2653V12.848V14.6481C37 21.9004 31.1207 27.7815 23.8667 27.7815H17.2161Z" fill="#8775FD"/>
<path d="M18.5029 22.2195C23.4796 22.2195 27.9756 19.0827 29.6927 14.4139C29.9572 13.6962 29.5889 12.9025 28.8713 12.638C28.1537 12.3751 27.3582 12.7417 27.0954 13.4593C25.776 17.044 22.3228 19.4545 18.5012 19.4545C14.6797 19.4545 11.2264 17.0457 9.90705 13.4611C9.64248 12.7435 8.84877 12.3769 8.13115 12.6397C7.41353 12.9025 7.04693 13.698 7.30977 14.4156C9.02688 19.0845 13.5246 22.2212 18.4995 22.2212L18.5029 22.2195Z" fill="#9BD61D"/>
</svg>
