<svg width="36" height="36" viewBox="0 0 36 36" fill="none" xmlns="http://www.w3.org/2000/svg">
<path d="M22.1259 20.75C21.6673 20.7499 21.2133 20.8417 20.7909 21.0202C20.3684 21.1987 19.986 21.4601 19.6664 21.789L15.7047 19.2427C16.0163 18.4435 16.0163 17.5565 15.7047 16.7573L19.6664 14.211C20.2615 14.8206 21.0617 15.1875 21.9119 15.2406C22.7622 15.2937 23.6018 15.0292 24.2681 14.4984C24.9344 13.9675 25.3798 13.2082 25.5181 12.3677C25.6563 11.5271 25.4775 10.6651 25.0164 9.94884C24.5552 9.23259 23.8445 8.71309 23.0221 8.49106C22.1996 8.26904 21.3241 8.3603 20.5651 8.74716C19.8061 9.13402 19.2178 9.78892 18.9143 10.5849C18.6107 11.3808 18.6136 12.2612 18.9222 13.0552L14.9605 15.6015C14.4834 15.1117 13.8711 14.7753 13.2019 14.6353C12.5326 14.4953 11.8369 14.5581 11.2035 14.8156C10.5701 15.0731 10.0279 15.5136 9.64616 16.0809C9.26444 16.6481 9.06055 17.3163 9.06055 18C9.06055 18.6837 9.26444 19.3519 9.64616 19.9192C10.0279 20.4864 10.5701 20.9269 11.2035 21.1844C11.8369 21.4419 12.5326 21.5047 13.2019 21.3647C13.8711 21.2247 14.4834 20.8883 14.9605 20.3985L18.9222 22.9448C18.6568 23.6294 18.6175 24.3809 18.8101 25.0893C19.0027 25.7978 19.4171 26.426 19.9925 26.8819C20.568 27.3378 21.2743 27.5975 22.008 27.6229C22.7417 27.6484 23.4643 27.4383 24.07 27.0233C24.6757 26.6084 25.1326 26.0105 25.3738 25.3171C25.6151 24.6237 25.628 23.8712 25.4107 23.17C25.1934 22.4687 24.7572 21.8555 24.1661 21.42C23.5751 20.9845 22.8601 20.7497 22.1259 20.75ZM22.1259 9.75001C22.5339 9.75001 22.9326 9.87097 23.2718 10.0976C23.611 10.3242 23.8753 10.6463 24.0314 11.0232C24.1875 11.4001 24.2284 11.8148 24.1488 12.2149C24.0692 12.615 23.8728 12.9825 23.5843 13.2709C23.2959 13.5594 22.9284 13.7558 22.5283 13.8354C22.1282 13.915 21.7135 13.8741 21.3367 13.718C20.9598 13.5619 20.6377 13.2975 20.411 12.9584C20.1844 12.6192 20.0634 12.2204 20.0634 11.8125C20.0634 11.2655 20.2807 10.7409 20.6675 10.3541C21.0543 9.9673 21.5789 9.75001 22.1259 9.75001ZM12.5009 20.0625C12.093 20.0625 11.6943 19.9415 11.3551 19.7149C11.0159 19.4883 10.7515 19.1662 10.5954 18.7893C10.4393 18.4124 10.3985 17.9977 10.4781 17.5976C10.5577 17.1975 10.7541 16.83 11.0425 16.5416C11.331 16.2532 11.6985 16.0567 12.0986 15.9771C12.4987 15.8976 12.9134 15.9384 13.2902 16.0945C13.6671 16.2506 13.9892 16.515 14.2158 16.8541C14.4425 17.1933 14.5634 17.5921 14.5634 18C14.5634 18.547 14.3461 19.0716 13.9593 19.4584C13.5726 19.8452 13.0479 20.0625 12.5009 20.0625ZM22.1259 26.25C21.718 26.25 21.3193 26.129 20.9801 25.9024C20.6409 25.6758 20.3765 25.3537 20.2204 24.9768C20.0643 24.5999 20.0235 24.1852 20.1031 23.7851C20.1827 23.385 20.3791 23.0175 20.6675 22.7291C20.956 22.4407 21.3235 22.2442 21.7236 22.1646C22.1237 22.0851 22.5384 22.1259 22.9152 22.282C23.2921 22.4381 23.6142 22.7025 23.8408 23.0416C24.0675 23.3808 24.1884 23.7796 24.1884 24.1875C24.1884 24.7345 23.9711 25.2591 23.5843 25.6459C23.1976 26.0327 22.6729 26.25 22.1259 26.25Z" fill="#9095A0"/>
</svg>
