<svg width="20" height="20" viewBox="0 0 20 20" fill="none" xmlns="http://www.w3.org/2000/svg">
<path d="M14.5 7.5L5.5 7.5L5.5 13.5L14.5 13.5L14.5 7.5Z" stroke="#565E6C" stroke-linecap="round" stroke-linejoin="round"/>
<path d="M10 11.5C10.5523 11.5 11 11.0523 11 10.5C11 9.94772 10.5523 9.5 10 9.5C9.44772 9.5 9 9.94772 9 10.5C9 11.0523 9.44772 11.5 10 11.5Z" stroke="#565E6C" stroke-linecap="round" stroke-linejoin="round"/>
<path d="M12.5 7.50001V5.00001C12.5033 4.67498 12.4425 4.35249 12.3212 4.05094C12.1999 3.7494 12.0203 3.47471 11.7928 3.24256C11.5653 3.01041 11.2943 2.82534 10.9953 2.69794C10.6962 2.57053 10.375 2.50327 10.05 2.50001H10C9.67497 2.49671 9.35248 2.55746 9.05094 2.6788C8.74939 2.80014 8.4747 2.97969 8.24255 3.2072C8.0104 3.43471 7.82534 3.70572 7.69793 4.00475C7.57052 4.30378 7.50327 4.62498 7.5 4.95001V7.50001" stroke="#565E6C" stroke-linecap="round" stroke-linejoin="round"/>
<path d="M8 18C8.55228 18 9 17.5523 9 17C9 16.4477 8.55228 16 8 16C7.44772 16 7 16.4477 7 17C7 17.5523 7.44772 18 8 18Z" fill="#565E6C"/>
<path d="M12 18C12.5523 18 13 17.5523 13 17C13 16.4477 12.5523 16 12 16C11.4477 16 11 16.4477 11 17C11 17.5523 11.4477 18 12 18Z" fill="#565E6C"/>
<path d="M16 18C16.5523 18 17 17.5523 17 17C17 16.4477 16.5523 16 16 16C15.4477 16 15 16.4477 15 17C15 17.5523 15.4477 18 16 18Z" fill="#565E6C"/>
<path d="M4 18C4.55228 18 5 17.5523 5 17C5 16.4477 4.55228 16 4 16C3.44772 16 3 16.4477 3 17C3 17.5523 3.44772 18 4 18Z" fill="#565E6C"/>
</svg>
