<svg width="24" height="24" viewBox="0 0 24 24" fill="none" xmlns="http://www.w3.org/2000/svg">
<path d="M6.85798 2.57143L2.57227 2.57143L2.57227 12L6.85798 12" stroke="#E5696D" stroke-width="2.05714" stroke-miterlimit="10"/>
<path d="M6.85742 12L9.42885 21.4286C10.1108 21.4286 10.7649 21.1577 11.2471 20.6754C11.7294 20.1932 12.0003 19.5391 12.0003 18.8571V13.7143L18.4289 13.7143C18.7996 13.7143 19.1659 13.6341 19.5027 13.4793C19.8396 13.3244 20.139 13.0986 20.3803 12.8172C20.6217 12.5358 20.7994 12.2056 20.9013 11.8491C21.0031 11.4927 21.0266 11.1184 20.9703 10.752L20.0471 4.752C19.9538 4.14534 19.6466 3.59207 19.181 3.19216C18.7154 2.79224 18.1221 2.57207 17.5083 2.57143L6.85742 2.57143L6.85742 12Z" stroke="#E5696D" stroke-width="2.05714" stroke-miterlimit="10" stroke-linecap="square"/>
</svg>
