<svg width="18" height="18" viewBox="0 0 18 18" fill="none" xmlns="http://www.w3.org/2000/svg">
<path d="M10.8 2.25L3.6 2.25C3.24196 2.25 2.89858 2.39223 2.64541 2.64541C2.39223 2.89858 2.25 3.24196 2.25 3.6L2.25 8.1C2.25 8.45804 2.39223 8.80142 2.64541 9.05459C2.89858 9.30777 3.24196 9.45 3.6 9.45H4.95V12.15L7.65 9.45L10.8 9.45C11.158 9.45 11.5014 9.30777 11.7546 9.05459C12.0078 8.80142 12.15 8.45804 12.15 8.1L12.15 3.6C12.15 3.24196 12.0078 2.89858 11.7546 2.64541C11.5014 2.39223 11.158 2.25 10.8 2.25Z" stroke="#565E6C" stroke-width="0.9" stroke-linecap="round" stroke-linejoin="round"/>
<path d="M7.65039 13.05H10.3504L13.0504 15.75L13.0504 13.05L14.4004 13.05C14.7584 13.05 15.1018 12.9078 15.355 12.6546C15.6082 12.4014 15.7504 12.058 15.7504 11.7L15.7504 7.20001C15.7504 6.84196 15.6082 6.49859 15.355 6.24541C15.1018 5.99224 14.7584 5.85001 14.4004 5.85001H13.9504" stroke="#565E6C" stroke-width="0.9" stroke-linecap="round" stroke-linejoin="round"/>
</svg>
