<svg width="18" height="18" viewBox="0 0 18 18" fill="none" xmlns="http://www.w3.org/2000/svg">
<path d="M9 1.6875C7.55373 1.6875 6.13993 2.11637 4.9374 2.91988C3.73486 3.72339 2.7976 4.86544 2.24413 6.20163C1.69067 7.53781 1.54586 9.00811 1.82801 10.4266C2.11017 11.8451 2.80661 13.148 3.82928 14.1707C4.85196 15.1934 6.15492 15.8898 7.57341 16.172C8.99189 16.4541 10.4622 16.3093 11.7984 15.7559C13.1346 15.2024 14.2766 14.2651 15.0801 13.0626C15.8836 11.8601 16.3125 10.4463 16.3125 9C16.3105 7.06123 15.5394 5.20246 14.1685 3.83154C12.7975 2.46063 10.9388 1.68955 9 1.6875ZM9 2.8125C10.1988 2.81123 11.3719 3.16021 12.375 3.81656V5.20313L10.8162 7.01297L8.60344 7.3125L8.58164 7.29703L7.1986 6.39281C7.07598 6.30644 6.93732 6.24545 6.79079 6.21345C6.64426 6.18144 6.4928 6.17906 6.34533 6.20645C6.19787 6.23383 6.05736 6.29043 5.93209 6.3729C5.80682 6.45538 5.6993 6.56208 5.61586 6.68672L4.14352 8.8875C4.02086 9.0709 3.95484 9.28632 3.95368 9.50695L3.9375 12.0544L3.70758 12.2055C3.13918 11.2671 2.83053 10.1944 2.81326 9.09741C2.79599 8.0004 3.07072 6.91852 3.60929 5.96266C4.14786 5.0068 4.9309 4.21133 5.87817 3.65777C6.82544 3.10422 7.90286 2.8125 9 2.8125ZM4.37977 13.1112L4.55696 12.9952C4.71168 12.8931 4.83879 12.7544 4.92699 12.5914C5.01519 12.4283 5.06174 12.2461 5.0625 12.0607L5.07727 9.51328L6.55102 7.3125C6.55824 7.31806 6.56575 7.32322 6.57352 7.32797L7.95657 8.23289C8.18834 8.39647 8.47353 8.46607 8.75461 8.42766L10.9688 8.12742C11.2418 8.09098 11.492 7.95563 11.6719 7.74703L13.2307 5.93578C13.405 5.73153 13.5006 5.47166 13.5 5.20313V4.75805C14.2608 5.56298 14.7913 6.55764 15.0358 7.6379C15.2804 8.71816 15.23 9.8443 14.8901 10.8984L13.7552 9.86063C13.5975 9.71581 13.4017 9.61904 13.1908 9.58167C12.9799 9.5443 12.7628 9.5679 12.5648 9.64969L10.4231 10.5391C10.244 10.6143 10.0873 10.7343 9.96813 10.8877C9.84892 11.041 9.77121 11.2224 9.7425 11.4145L9.57446 12.5529C9.53406 12.8269 9.59617 13.1062 9.74887 13.3372C9.90157 13.5683 10.1341 13.7349 10.402 13.8052L11.9109 14.2031L12.0769 14.3698C10.8447 15.0767 9.40661 15.3375 8.00466 15.1083C6.60272 14.8791 5.32257 14.1738 4.37977 13.1112ZM13.0078 13.7109L12.7055 13.4079C12.5644 13.2663 12.3882 13.1649 12.195 13.114L10.6875 12.716L10.8555 11.5777L12.9966 10.6875L14.4141 11.9869C14.0528 12.6414 13.5764 13.2255 13.0078 13.7109Z" fill="#565E6C"/>
</svg>
