<svg width="18" height="18" viewBox="0 0 18 18" fill="none" xmlns="http://www.w3.org/2000/svg">
<path d="M12.3751 16.3125C12.3751 16.4617 12.3158 16.6048 12.2103 16.7102C12.1049 16.8157 11.9618 16.875 11.8126 16.875H6.18759C6.03841 16.875 5.89533 16.8157 5.78984 16.7102C5.68436 16.6048 5.62509 16.4617 5.62509 16.3125C5.62509 16.1633 5.68436 16.0202 5.78984 15.9147C5.89533 15.8093 6.03841 15.75 6.18759 15.75L11.8126 15.75C11.9618 15.75 12.1049 15.8093 12.2103 15.9147C12.3158 16.0202 12.3751 16.1633 12.3751 16.3125ZM15.1876 7.3125C15.19 8.25021 14.9782 9.17609 14.5683 10.0195C14.1583 10.8628 13.5611 11.6014 12.8223 12.1788C12.6841 12.2847 12.572 12.4208 12.4945 12.5767C12.417 12.7325 12.3762 12.9041 12.3751 13.0781V13.5C12.3751 13.7984 12.2566 14.0845 12.0456 14.2955C11.8346 14.5065 11.5485 14.625 11.2501 14.625H6.75009C6.45172 14.625 6.16558 14.5065 5.9546 14.2955C5.74362 14.0845 5.62509 13.7984 5.62509 13.5V13.0781C5.62498 12.9061 5.58543 12.7365 5.50949 12.5821C5.43355 12.4278 5.32325 12.293 5.18704 12.188C4.45012 11.614 3.8534 10.88 3.44203 10.0414C3.03066 9.20286 2.81541 8.28169 2.81259 7.34765C2.79431 3.99585 5.50275 1.20585 8.85103 1.125C9.67604 1.10511 10.4967 1.25047 11.2647 1.55251C12.0327 1.85455 12.7325 2.30716 13.3229 2.88372C13.9134 3.46027 14.3825 4.14911 14.7028 4.9097C15.023 5.67028 15.1878 6.48724 15.1876 7.3125ZM14.0626 7.3125C14.0628 6.63726 13.9279 5.9688 13.6659 5.34648C13.4038 4.72416 13.02 4.16054 12.5368 3.68881C12.0537 3.21708 11.4811 2.84676 10.8527 2.59966C10.2243 2.35257 9.55279 2.23368 8.87775 2.25C6.13556 2.31468 3.92283 4.59773 3.93759 7.33992C3.94011 8.10393 4.11639 8.85737 4.45309 9.54319C4.78979 10.229 5.27809 10.8293 5.88103 11.2985C6.15204 11.5092 6.37126 11.7791 6.52189 12.0876C6.67253 12.396 6.75059 12.7348 6.75009 13.0781V13.5H8.43759V10.3577L6.35212 8.27296C6.24658 8.16742 6.18728 8.02426 6.18728 7.875C6.18728 7.72573 6.24658 7.58257 6.35212 7.47703C6.45767 7.37148 6.60082 7.31218 6.75009 7.31218C6.89936 7.31218 7.04251 7.37148 7.14806 7.47703L9.00009 9.32976L10.8521 7.47703C10.9044 7.42476 10.9664 7.38331 11.0347 7.35502C11.103 7.32674 11.1762 7.31218 11.2501 7.31218C11.324 7.31218 11.3972 7.32674 11.4655 7.35502C11.5338 7.38331 11.5958 7.42476 11.6481 7.47703C11.7003 7.52929 11.7418 7.59133 11.7701 7.65962C11.7983 7.7279 11.8129 7.80109 11.8129 7.875C11.8129 7.9489 11.7983 8.02209 11.7701 8.09037C11.7418 8.15866 11.7003 8.2207 11.6481 8.27296L9.56259 10.3577V13.5H11.2501V13.0781C11.2507 12.7338 11.33 12.3943 11.482 12.0853C11.634 11.7764 11.8546 11.5063 12.1269 11.2957C12.7316 10.8231 13.2204 10.2185 13.5559 9.5282C13.8914 8.83787 14.0647 8.08002 14.0626 7.3125Z" fill="#565E6C"/>
</svg>
