<svg width="18" height="18" viewBox="0 0 18 18" fill="none" xmlns="http://www.w3.org/2000/svg">
<path d="M15.1875 2.8125L2.8125 2.8125C2.51413 2.8125 2.22798 2.93103 2.017 3.142C1.80603 3.35298 1.6875 3.63913 1.6875 3.9375L1.6875 14.0625C1.6875 14.3609 1.80603 14.647 2.017 14.858C2.22798 15.069 2.51413 15.1875 2.8125 15.1875L15.1875 15.1875C15.4859 15.1875 15.772 15.069 15.983 14.858C16.194 14.647 16.3125 14.3609 16.3125 14.0625L16.3125 3.9375C16.3125 3.63913 16.194 3.35298 15.983 3.142C15.772 2.93103 15.4859 2.8125 15.1875 2.8125ZM2.8125 6.1875L8.4375 6.1875L8.4375 11.8125L2.8125 11.8125L2.8125 6.1875ZM9.5625 5.0625V3.9375L11.8125 3.9375V5.0625L9.5625 5.0625ZM8.4375 5.0625L6.1875 5.0625L6.1875 3.9375L8.4375 3.9375V5.0625ZM8.4375 12.9375V14.0625H6.1875V12.9375H8.4375ZM9.5625 12.9375H11.8125L11.8125 14.0625H9.5625V12.9375ZM9.5625 11.8125L9.5625 6.1875L15.1875 6.1875L15.1875 11.8125L9.5625 11.8125ZM15.1875 5.0625L12.9375 5.0625V3.9375L15.1875 3.9375V5.0625ZM5.0625 3.9375V5.0625L2.8125 5.0625L2.8125 3.9375L5.0625 3.9375ZM2.8125 12.9375H5.0625V14.0625H2.8125V12.9375ZM15.1875 14.0625H12.9375L12.9375 12.9375H15.1875L15.1875 14.0625Z" fill="#565E6C"/>
</svg>
