<svg width="20" height="20" viewBox="0 0 20 20" fill="none" xmlns="http://www.w3.org/2000/svg">
<path d="M16.0006 13.782C15.7533 14.3741 15.4496 14.9411 15.0936 15.475C14.5046 16.375 13.6746 17.488 12.6446 17.498C11.7306 17.507 11.4956 16.903 10.2546 16.91C9.01357 16.917 8.75457 17.51 7.84057 17.5C6.81157 17.491 6.02457 16.482 5.43557 15.585C3.78857 13.078 3.61557 10.135 4.63557 8.571C4.94247 8.06039 5.36985 7.63278 5.88029 7.32561C6.39074 7.01843 6.96869 6.84105 7.56357 6.809C8.65357 6.809 9.33957 7.409 10.2416 7.409C11.1166 7.409 11.6496 6.809 12.9106 6.809C13.4344 6.83278 13.9465 6.97194 14.4103 7.21654C14.8741 7.46115 15.2781 7.80516 15.5936 8.224C15.0807 8.50791 14.6599 8.93276 14.3808 9.44832C14.1018 9.96387 13.9763 10.5485 14.0191 11.1332C14.0619 11.7178 14.2713 12.278 14.6224 12.7474C14.9736 13.2168 15.4518 13.5758 16.0006 13.782Z" stroke="white" stroke-linecap="round" stroke-linejoin="round"/>
<path d="M12.5998 4.7C12.9081 4.32667 13.1389 3.89557 13.2785 3.43195C13.4181 2.96832 13.4637 2.4815 13.4128 2C12.4229 2.11725 11.5144 2.60581 10.8708 3.367C10.5549 3.72274 10.3176 4.14113 10.1744 4.59484C10.0312 5.04854 9.98534 5.52736 10.0398 6C10.5366 5.98835 11.0244 5.86553 11.4674 5.64056C11.9104 5.41559 12.2974 5.0942 12.5998 4.7Z" fill="white"/>
</svg>
