<svg width="17" height="17" viewBox="0 0 17 17" fill="none" xmlns="http://www.w3.org/2000/svg">
<path d="M16.4507 13.7978L11.1517 8.49889L16.4507 3.19994C17.1831 2.46749 17.1831 1.28291 16.4507 0.550466C15.7182 -0.181982 14.5337 -0.181982 13.8012 0.550466L8.50228 5.84941L3.19881 0.545945C2.46636 -0.181982 1.28178 -0.181982 0.549336 0.545945C-0.178591 1.27839 -0.178591 2.46297 0.549336 3.19542L5.84828 8.49437L0.549336 13.7978C-0.183112 14.5303 -0.183112 15.7149 0.549336 16.4473C1.28178 17.1798 2.46636 17.1798 3.19881 16.4473L8.49776 11.1484L13.7967 16.4473C14.5292 17.1798 15.7137 17.1798 16.4462 16.4473C17.1786 15.7149 17.1786 14.5303 16.4462 13.7978H16.4507Z" fill="#7BA917"/>
</svg>
