<svg width="20" height="20" viewBox="0 0 20 20" fill="none" xmlns="http://www.w3.org/2000/svg">
<path d="M10 5.5L10 10H14.5" stroke="#565E6C" stroke-width="1.2" stroke-miterlimit="10" stroke-linecap="square"/>
<path d="M3.309 13.3915C4.13914 15.0311 5.54222 16.309 7.25207 16.9828C8.96192 17.6565 10.8596 17.6792 12.5851 17.0466C14.3106 16.414 15.7438 15.17 16.613 13.5507C17.4821 11.9314 17.7267 10.0495 17.3003 8.26182C16.8738 6.47418 15.8061 4.90523 14.2996 3.85262C12.7931 2.8 10.9527 2.33696 9.1274 2.55132C7.30215 2.76568 5.61906 3.64254 4.39744 5.01555C3.17581 6.38856 2.50064 8.1622 2.5 10" stroke="#565E6C" stroke-width="1.2" stroke-miterlimit="10"/>
<path d="M3.80859 17.39L3.30859 13.39L7.30859 13.89" stroke="#565E6C" stroke-width="1.2" stroke-miterlimit="10" stroke-linecap="square"/>
</svg>
