<svg width="24" height="24" viewBox="0 0 24 24" fill="none" xmlns="http://www.w3.org/2000/svg">
<path d="M21.6929 4.15687C21.6929 4.15687 21.6929 4.16625 21.6929 4.17094L16.2366 22.1653C16.1541 22.4576 15.9841 22.7176 15.7494 22.9105C15.5148 23.1034 15.2269 23.2199 14.9241 23.2444C14.881 23.2481 14.8379 23.25 14.7948 23.25C14.5111 23.2509 14.233 23.1706 13.9935 23.0186C13.754 22.8666 13.5629 22.6492 13.4429 22.3922L10.0951 15.3244C10.062 15.2545 10.0514 15.176 10.0647 15.0998C10.0779 15.0236 10.1144 14.9534 10.1691 14.8988L15.5373 9.52969C15.672 9.38789 15.746 9.19908 15.7435 9.00351C15.741 8.80794 15.6622 8.62108 15.5239 8.48278C15.3856 8.34448 15.1987 8.26567 15.0031 8.26317C14.8076 8.26067 14.6187 8.33466 14.477 8.46937L9.10039 13.8375C9.04574 13.8922 8.97551 13.9287 8.89931 13.942C8.82312 13.9552 8.74469 13.9446 8.67476 13.9116L1.64351 10.5806C1.36737 10.4541 1.13498 10.2485 0.975763 9.98982C0.816551 9.73114 0.737681 9.43103 0.74914 9.1275C0.76441 8.81553 0.877351 8.51626 1.072 8.27198C1.26664 8.02771 1.53315 7.85079 1.83383 7.76625L19.8282 2.31H19.8423C20.0985 2.23802 20.3692 2.2355 20.6267 2.30269C20.8842 2.36988 21.1192 2.50437 21.3076 2.69235C21.4959 2.88034 21.6309 3.11506 21.6986 3.37242C21.7663 3.62978 21.7643 3.90053 21.6929 4.15687Z" fill="#9095A0"/>
</svg>
