<svg width="36" height="36" viewBox="0 0 36 36" fill="none" xmlns="http://www.w3.org/2000/svg">
<path d="M17.9996 19.65C18.9109 19.65 19.6496 18.9113 19.6496 18C19.6496 17.0887 18.9109 16.35 17.9996 16.35C17.0883 16.35 16.3496 17.0887 16.3496 18C16.3496 18.9113 17.0883 19.65 17.9996 19.65Z" stroke="#9095A0" stroke-width="1.1" stroke-miterlimit="10" stroke-linecap="round" stroke-linejoin="round"/>
<path d="M24.5992 19.65C25.5105 19.65 26.2492 18.9113 26.2492 18C26.2492 17.0887 25.5105 16.35 24.5992 16.35C23.6879 16.35 22.9492 17.0887 22.9492 18C22.9492 18.9113 23.6879 19.65 24.5992 19.65Z" stroke="#9095A0" stroke-width="1.1" stroke-miterlimit="10" stroke-linecap="round" stroke-linejoin="round"/>
<path d="M11.4 19.65C12.3113 19.65 13.05 18.9113 13.05 18C13.05 17.0887 12.3113 16.35 11.4 16.35C10.4887 16.35 9.75 17.0887 9.75 18C9.75 18.9113 10.4887 19.65 11.4 19.65Z" stroke="#9095A0" stroke-width="1.1" stroke-miterlimit="10" stroke-linecap="round" stroke-linejoin="round"/>
</svg>
