<svg width="28" height="28" viewBox="0 0 28 28" fill="none" xmlns="http://www.w3.org/2000/svg">
<path d="M10.175 13.575L7.625 13.575L7.625 20.375H10.175L10.175 13.575Z" stroke="#9095A0" stroke-width="0.85" stroke-linecap="round" stroke-linejoin="round"/>
<path d="M11.875 20.375L17.74 20.375C18.1267 20.3749 18.5019 20.243 18.8035 20.001C19.1052 19.759 19.3153 19.4214 19.3992 19.0439L20.3436 14.7939C20.3989 14.5451 20.3975 14.2871 20.3396 14.0389C20.2818 13.7907 20.1688 13.5587 20.0092 13.3601C19.8496 13.1614 19.6473 13.0012 19.4174 12.8913C19.1875 12.7814 18.9358 12.7245 18.681 12.725L15.275 12.725L15.275 9.325C15.275 8.87413 15.0959 8.44173 14.7771 8.12292C14.4583 7.80411 14.0259 7.625 13.575 7.625L11.875 12.725" stroke="#9095A0" stroke-width="0.85" stroke-linecap="round" stroke-linejoin="round"/>
</svg>
