<svg width="139" height="105" viewBox="0 0 139 105" fill="none" xmlns="http://www.w3.org/2000/svg">
<g clip-path="url(#clip0_15_1693)">
<path d="M42.908 -8.53015C41.4353 -6.85919 39.6897 -5.36388 38.5541 -3.48741C36.9381 -0.7999 35.4096 2.05743 34.4532 5.02555C28.5022 23.6816 28.9053 42.4721 37.9625 59.6873C47.1941 77.2607 62.6502 87.5667 82.9561 89.1604C93.1228 89.9624 103.134 88.6245 112.886 85.4963C114.648 84.9391 116.419 84.4099 119.334 83.5268C117.709 87.3743 116.466 90.3056 115.223 93.2369C115.577 93.48 115.932 93.7232 116.277 93.9568C117.054 93.4614 117.975 93.1005 118.562 92.4413C121.649 89.0018 124.683 85.5048 127.69 81.9792C129.608 79.7096 131.671 77.2682 130.444 74.083C129.113 70.6532 125.797 69.8436 122.595 69.8266C118.196 69.7998 113.775 70.19 109.406 70.6933C108.502 70.8042 107.752 72.2101 106.938 73.0106C107.748 73.8158 108.457 75.184 109.38 75.3429C112.251 75.8508 115.201 75.9063 118.183 76.1299C118.023 76.4961 117.994 76.8108 117.853 76.8714C89.8234 89.209 62.9333 85.6449 44.6151 61.8455C43.7233 60.6851 42.9373 59.4073 42.3104 58.0881C33.2361 39.0531 32.23 19.6588 39.9402 -0.0373077C40.9597 -2.65072 42.7405 -4.97104 44.164 -7.44182C43.7486 -7.80759 43.3241 -8.18293 42.899 -8.53972L42.908 -8.53015Z" fill="#9BD61D"/>
</g>
<defs>
<clipPath id="clip0_15_1693">
<rect width="125" height="60" fill="white" transform="translate(23.8769) scale(1.00324) rotate(23.37)"/>
</clipPath>
</defs>
</svg>
