<svg width="36" height="36" viewBox="0 0 36 36" fill="none" xmlns="http://www.w3.org/2000/svg">
<g clip-path="url(#clip0_15_1970)">
<path d="M18.0001 35.92C27.897 35.92 35.9201 27.8969 35.9201 18C35.9201 8.10306 27.897 0.0800018 18.0001 0.0800018C8.10314 0.0800018 0.0800781 8.10306 0.0800781 18C0.0800781 27.8969 8.10314 35.92 18.0001 35.92Z" fill="#9BD61D"/>
<path d="M18.001 32.21C25.849 32.21 32.211 25.848 32.211 18C32.211 10.152 25.849 3.79001 18.001 3.79001C10.153 3.79001 3.79102 10.152 3.79102 18C3.79102 25.848 10.153 32.21 18.001 32.21Z" fill="#AAE330"/>
<path d="M18.0002 28.01C23.5286 28.01 28.0102 23.5284 28.0102 18C28.0102 12.4716 23.5286 7.99001 18.0002 7.99001C12.4719 7.99001 7.99023 12.4716 7.99023 18C7.99023 23.5284 12.4719 28.01 18.0002 28.01Z" fill="#B5E64A"/>
<path d="M24.5562 9.97396C24.4614 9.62256 24.8967 9.37567 25.1497 9.6374C25.7557 10.2644 26.6545 10.5127 27.4965 10.2855C27.8478 10.1908 28.0947 10.6261 27.833 10.879C27.206 11.4851 26.9578 12.3839 27.1848 13.2258C27.2796 13.5771 26.8443 13.824 26.5914 13.5624C25.9854 12.9353 25.0865 12.6871 24.2446 12.9142C23.8932 13.009 23.6463 12.5736 23.9081 12.3207C24.5351 11.7147 24.7833 10.8159 24.5562 9.97396Z" fill="white"/>
<path d="M26.5942 17.0467C26.5653 16.921 26.5056 16.8046 26.4206 16.7077C26.3355 16.6108 26.2278 16.5365 26.1071 16.4914L19.6566 15.2257L21.9176 7.24758C21.9502 7.08217 21.9291 6.91067 21.8572 6.75817C21.7853 6.60566 21.6665 6.48019 21.5181 6.40014C21.3682 6.32043 21.1962 6.2925 21.0288 6.32069C20.8614 6.34888 20.708 6.4316 20.5925 6.55598L9.68037 18.2447C9.59091 18.3375 9.52623 18.4512 9.49221 18.5754C9.45812 18.6996 9.45588 18.8305 9.48549 18.9558C9.51601 19.0807 9.57621 19.1964 9.66105 19.2931C9.74582 19.3898 9.85271 19.4645 9.97262 19.511L16.5016 20.6983L14.1621 28.7549C14.1294 28.9203 14.1506 29.0918 14.2225 29.2443C14.2943 29.3968 14.4132 29.5223 14.5616 29.6023C14.6735 29.6588 14.7968 29.6887 14.9221 29.69C15.0279 29.6904 15.1328 29.6691 15.23 29.6271C15.3273 29.5853 15.4148 29.5237 15.4871 29.4465L26.3993 17.7577C26.4888 17.665 26.5534 17.5513 26.5875 17.427C26.6216 17.3028 26.6238 17.172 26.5942 17.0467Z" fill="white"/>
</g>
<defs>
<clipPath id="clip0_15_1970">
<rect width="36" height="36" fill="white"/>
</clipPath>
</defs>
</svg>
